<?xml version="1.0" encoding="UTF-8"?>
<svg id="b" data-name="Layer 2" xmlns="http://www.w3.org/2000/svg" width="400" height="400" viewBox="0 0 400 400">
  <g>
    <rect x="185" y="295" width="35" height="10" rx="5" ry="5" style="fill: #b2d326; stroke-width: 0px;"/>
    <rect x="120" y="295" width="30" height="10" rx="5" ry="5" style="fill: #b2d326; stroke-width: 0px;"/>
    <rect x="210" y="275" width="10" height="10" rx="5" ry="5" style="fill: #b2d326; stroke-width: 0px;"/>
    <rect x="185" y="275" width="15" height="10" rx="5" ry="5" style="fill: #b2d326; stroke-width: 0px;"/>
    <rect x="120" y="275" width="20" height="10" rx="5" ry="5" style="fill: #b2d326; stroke-width: 0px;"/>
    <rect x="120" y="255" width="15" height="10" rx="5" ry="5" style="fill: #b2d326; stroke-width: 0px;"/>
    <rect x="185" y="255" width="35" height="10" rx="5" ry="5" style="fill: #b2d326; stroke-width: 0px;"/>
    <rect x="110" y="235" width="20" height="10" rx="5" ry="5" style="fill: #b2d326; stroke-width: 0px;"/>
    <rect x="175" y="235" width="50" height="10" rx="5" ry="5" style="fill: #b2d326; stroke-width: 0px;"/>
    <rect x="180" y="215" width="35" height="10" rx="5" ry="5" style="fill: #b2d326; stroke-width: 0px;"/>
    <rect x="150" y="215" width="20" height="10" rx="5" ry="5" style="fill: #b2d326; stroke-width: 0px;"/>
    <rect x="95" y="215" width="25" height="10" rx="5" ry="5" style="fill: #b2d326; stroke-width: 0px;"/>
    <rect x="225" y="215" width="25" height="10" rx="5" ry="5" style="fill: #b2d326; stroke-width: 0px;"/>
    <rect x="195" y="195" width="20" height="10" rx="5" ry="5" style="fill: #b2d326; stroke-width: 0px;"/>
    <rect x="135" y="195" width="20" height="10" rx="5" ry="5" style="fill: #b2d326; stroke-width: 0px;"/>
    <rect x="245" y="195" width="20" height="10" rx="5" ry="5" style="fill: #b2d326; stroke-width: 0px;"/>
    <rect x="195" y="175" width="30" height="10" rx="5" ry="5" style="fill: #b2d326; stroke-width: 0px;"/>
    <rect x="260" y="175" width="20" height="10" rx="5" ry="5" style="fill: #b2d326; stroke-width: 0px;"/>
    <rect x="200" y="155" width="25" height="10" rx="5" ry="5" style="fill: #b2d326; stroke-width: 0px;"/>
    <rect x="205" y="135" width="25" height="10" rx="5" ry="5" style="fill: #b2d326; stroke-width: 0px;"/>
    <rect x="215" y="115" width="20" height="10" rx="5" ry="5" style="fill: #b2d326; stroke-width: 0px;"/>
    <rect x="275" y="115" width="30" height="10" rx="5" ry="5" style="fill: #b2d326; stroke-width: 0px;"/>
    <rect x="240" y="95" width="40" height="10" rx="5" ry="5" style="fill: #b2d326; stroke-width: 0px;"/>
  </g>
  <g>
    <rect x="95" y="95" width="135" height="10" rx="5" ry="5" style="fill: #4d616e; opacity: .5; stroke-width: 0px;"/>
    <rect x="95" y="135" width="100" height="10" rx="5" ry="5" style="fill: #4d616e; opacity: .5; stroke-width: 0px;"/>
    <rect x="150" y="115" width="55" height="10" rx="5" ry="5" style="fill: #4d616e; opacity: .5; stroke-width: 0px;"/>
    <rect x="245" y="115" width="25" height="10" rx="5" ry="5" style="fill: #4d616e; opacity: .5; stroke-width: 0px;"/>
    <rect x="240" y="135" width="65" height="10" rx="5" ry="5" style="fill: #4d616e; opacity: .5; stroke-width: 0px;"/>
    <rect x="235" y="155" width="30" height="10" rx="5" ry="5" style="fill: #4d616e; opacity: .5; stroke-width: 0px;"/>
    <rect x="235" y="175" width="15" height="10" rx="5" ry="5" style="fill: #4d616e; opacity: .5; stroke-width: 0px;"/>
    <rect x="285" y="175" width="20" height="10" rx="5" ry="5" style="fill: #4d616e; opacity: .5; stroke-width: 0px;"/>
    <rect x="275" y="195" width="30" height="10" rx="5" ry="5" style="fill: #4d616e; opacity: .5; stroke-width: 0px;"/>
    <rect x="260" y="215" width="45" height="10" rx="5" ry="5" style="fill: #4d616e; opacity: .5; stroke-width: 0px;"/>
    <rect x="235" y="235" width="25" height="10" rx="5" ry="5" style="fill: #4d616e; opacity: .5; stroke-width: 0px;"/>
    <rect x="270" y="235" width="35" height="10" rx="5" ry="5" style="fill: #4d616e; opacity: .5; stroke-width: 0px;"/>
    <rect x="230" y="275" width="75" height="10" rx="5" ry="5" style="fill: #4d616e; opacity: .5; stroke-width: 0px;"/>
    <rect x="255" y="255" width="25" height="10" rx="5" ry="5" style="fill: #4d616e; opacity: .5; stroke-width: 0px;"/>
    <rect x="230" y="255" width="15" height="10" rx="5" ry="5" style="fill: #4d616e; opacity: .5; stroke-width: 0px;"/>
    <rect x="290" y="255" width="15" height="10" rx="5" ry="5" style="fill: #4d616e; opacity: .5; stroke-width: 0px;"/>
    <rect x="255" y="295" width="25" height="10" rx="5" ry="5" style="fill: #4d616e; opacity: .5; stroke-width: 0px;"/>
    <rect x="230" y="295" width="15" height="10" rx="5" ry="5" style="fill: #4d616e; opacity: .5; stroke-width: 0px;"/>
    <rect x="290" y="295" width="15" height="10" rx="5" ry="5" style="fill: #4d616e; opacity: .5; stroke-width: 0px;"/>
    <rect x="225" y="195" width="10" height="10" rx="5" ry="5" style="fill: #4d616e; opacity: .5; stroke-width: 0px;"/>
    <rect x="165" y="195" width="20" height="10" rx="5" ry="5" style="fill: #4d616e; opacity: .5; stroke-width: 0px;"/>
    <rect x="95" y="195" width="30" height="10" rx="5" ry="5" style="fill: #4d616e; opacity: .5; stroke-width: 0px;"/>
    <rect x="95" y="235" width="10" height="10" rx="5" ry="5" style="fill: #4d616e; opacity: .5; stroke-width: 0px;"/>
    <rect x="95" y="255" width="15" height="10" rx="5" ry="5" style="fill: #4d616e; opacity: .5; stroke-width: 0px;"/>
    <rect x="95" y="275" width="15" height="10" rx="5" ry="5" style="fill: #4d616e; opacity: .5; stroke-width: 0px;"/>
    <rect x="95" y="295" width="15" height="10" rx="5" ry="5" style="fill: #4d616e; opacity: .5; stroke-width: 0px;"/>
    <rect x="160" y="295" width="15" height="10" rx="5" ry="5" style="fill: #4d616e; opacity: .5; stroke-width: 0px;"/>
    <rect x="150" y="275" width="25" height="10" rx="5" ry="5" style="fill: #4d616e; opacity: .5; stroke-width: 0px;"/>
    <rect x="145" y="255" width="30" height="10" rx="5" ry="5" style="fill: #4d616e; opacity: .5; stroke-width: 0px;"/>
    <rect x="140" y="235" width="25" height="10" rx="5" ry="5" style="fill: #4d616e; opacity: .5; stroke-width: 0px;"/>
    <rect x="130" y="215" width="10" height="10" rx="5" ry="5" style="fill: #4d616e; opacity: .5; stroke-width: 0px;"/>
    <rect x="95" y="175" width="45" height="10" rx="5" ry="5" style="fill: #4d616e; opacity: .5; stroke-width: 0px;"/>
    <rect x="150" y="175" width="35" height="10" rx="5" ry="5" style="fill: #4d616e; opacity: .5; stroke-width: 0px;"/>
    <rect x="165" y="155" width="25" height="10" rx="5" ry="5" style="fill: #4d616e; opacity: .5; stroke-width: 0px;"/>
    <rect x="95" y="155" width="60" height="10" rx="5" ry="5" style="fill: #4d616e; opacity: .5; stroke-width: 0px;"/>
    <rect x="270" y="155" width="35" height="10" rx="5" ry="5" style="fill: #4d616e; opacity: .5; stroke-width: 0px;"/>
    <rect x="95" y="115" width="45" height="10" rx="5" ry="5" style="fill: #4d616e; opacity: .5; stroke-width: 0px;"/>
    <rect x="290" y="95" width="15" height="10" rx="5" ry="5" style="fill: #4d616e; opacity: .5; stroke-width: 0px;"/>
  </g>
</svg>