<?xml version="1.0" encoding="UTF-8"?>
<svg id="a" data-name="Layer 4" xmlns="http://www.w3.org/2000/svg" width="1200" height="500" viewBox="0 0 1200 500">
  <g>
    <g>
      <rect x="246" y="345" width="35" height="10" rx="5" ry="5" style="fill: #b2d326; stroke-width: 0px;"/>
      <rect x="181" y="345" width="30" height="10" rx="5" ry="5" style="fill: #b2d326; stroke-width: 0px;"/>
      <rect x="271" y="325" width="10" height="10" rx="5" ry="5" style="fill: #b2d326; stroke-width: 0px;"/>
      <rect x="246" y="325" width="15" height="10" rx="5" ry="5" style="fill: #b2d326; stroke-width: 0px;"/>
      <rect x="181" y="325" width="20" height="10" rx="5" ry="5" style="fill: #b2d326; stroke-width: 0px;"/>
      <rect x="181" y="305" width="15" height="10" rx="5" ry="5" style="fill: #b2d326; stroke-width: 0px;"/>
      <rect x="246" y="305" width="35" height="10" rx="5" ry="5" style="fill: #b2d326; stroke-width: 0px;"/>
      <rect x="171" y="285" width="20" height="10" rx="5" ry="5" style="fill: #b2d326; stroke-width: 0px;"/>
      <rect x="236" y="285" width="50" height="10" rx="5" ry="5" style="fill: #b2d326; stroke-width: 0px;"/>
      <rect x="241" y="265" width="35" height="10" rx="5" ry="5" style="fill: #b2d326; stroke-width: 0px;"/>
      <rect x="211" y="265" width="20" height="10" rx="5" ry="5" style="fill: #b2d326; stroke-width: 0px;"/>
      <rect x="156" y="265" width="25" height="10" rx="5" ry="5" style="fill: #b2d326; stroke-width: 0px;"/>
      <rect x="286" y="265" width="25" height="10" rx="5" ry="5" style="fill: #b2d326; stroke-width: 0px;"/>
      <rect x="256" y="245" width="20" height="10" rx="5" ry="5" style="fill: #b2d326; stroke-width: 0px;"/>
      <rect x="196" y="245" width="20" height="10" rx="5" ry="5" style="fill: #b2d326; stroke-width: 0px;"/>
      <rect x="306" y="245" width="20" height="10" rx="5" ry="5" style="fill: #b2d326; stroke-width: 0px;"/>
      <rect x="256" y="225" width="30" height="10" rx="5" ry="5" style="fill: #b2d326; stroke-width: 0px;"/>
      <rect x="321" y="225" width="20" height="10" rx="5" ry="5" style="fill: #b2d326; stroke-width: 0px;"/>
      <rect x="261" y="205" width="25" height="10" rx="5" ry="5" style="fill: #b2d326; stroke-width: 0px;"/>
      <rect x="266" y="185" width="25" height="10" rx="5" ry="5" style="fill: #b2d326; stroke-width: 0px;"/>
      <rect x="276" y="165" width="20" height="10" rx="5" ry="5" style="fill: #b2d326; stroke-width: 0px;"/>
      <rect x="336" y="165" width="30" height="10" rx="5" ry="5" style="fill: #b2d326; stroke-width: 0px;"/>
      <rect x="301" y="145" width="40" height="10" rx="5" ry="5" style="fill: #b2d326; stroke-width: 0px;"/>
    </g>
    <g style="opacity: .5;">
      <rect x="156" y="145" width="135" height="10" rx="5" ry="5" style="fill: #4d616e; opacity: .5; stroke-width: 0px;"/>
      <rect x="156" y="185" width="100" height="10" rx="5" ry="5" style="fill: #4d616e; opacity: .5; stroke-width: 0px;"/>
      <rect x="211" y="165" width="55" height="10" rx="5" ry="5" style="fill: #4d616e; opacity: .5; stroke-width: 0px;"/>
      <rect x="306" y="165" width="25" height="10" rx="5" ry="5" style="fill: #4d616e; opacity: .5; stroke-width: 0px;"/>
      <rect x="301" y="185" width="65" height="10" rx="5" ry="5" style="fill: #4d616e; opacity: .5; stroke-width: 0px;"/>
      <rect x="296" y="205" width="30" height="10" rx="5" ry="5" style="fill: #4d616e; opacity: .5; stroke-width: 0px;"/>
      <rect x="296" y="225" width="15" height="10" rx="5" ry="5" style="fill: #4d616e; opacity: .5; stroke-width: 0px;"/>
      <rect x="346" y="225" width="20" height="10" rx="5" ry="5" style="fill: #4d616e; opacity: .5; stroke-width: 0px;"/>
      <rect x="336" y="245" width="30" height="10" rx="5" ry="5" style="fill: #4d616e; opacity: .5; stroke-width: 0px;"/>
      <rect x="321" y="265" width="45" height="10" rx="5" ry="5" style="fill: #4d616e; opacity: .5; stroke-width: 0px;"/>
      <rect x="296" y="285" width="25" height="10" rx="5" ry="5" style="fill: #4d616e; opacity: .5; stroke-width: 0px;"/>
      <rect x="331" y="285" width="35" height="10" rx="5" ry="5" style="fill: #4d616e; opacity: .5; stroke-width: 0px;"/>
      <rect x="291" y="325" width="75" height="10" rx="5" ry="5" style="fill: #4d616e; opacity: .5; stroke-width: 0px;"/>
      <rect x="316" y="305" width="25" height="10" rx="5" ry="5" style="fill: #4d616e; opacity: .5; stroke-width: 0px;"/>
      <rect x="291" y="305" width="15" height="10" rx="5" ry="5" style="fill: #4d616e; opacity: .5; stroke-width: 0px;"/>
      <rect x="351" y="305" width="15" height="10" rx="5" ry="5" style="fill: #4d616e; opacity: .5; stroke-width: 0px;"/>
      <rect x="316" y="345" width="25" height="10" rx="5" ry="5" style="fill: #4d616e; opacity: .5; stroke-width: 0px;"/>
      <rect x="291" y="345" width="15" height="10" rx="5" ry="5" style="fill: #4d616e; opacity: .5; stroke-width: 0px;"/>
      <rect x="351" y="345" width="15" height="10" rx="5" ry="5" style="fill: #4d616e; opacity: .5; stroke-width: 0px;"/>
      <rect x="286" y="245" width="10" height="10" rx="5" ry="5" style="fill: #4d616e; opacity: .5; stroke-width: 0px;"/>
      <rect x="226" y="245" width="20" height="10" rx="5" ry="5" style="fill: #4d616e; opacity: .5; stroke-width: 0px;"/>
      <rect x="156" y="245" width="30" height="10" rx="5" ry="5" style="fill: #4d616e; opacity: .5; stroke-width: 0px;"/>
      <rect x="156" y="285" width="10" height="10" rx="5" ry="5" style="fill: #4d616e; opacity: .5; stroke-width: 0px;"/>
      <rect x="156" y="305" width="15" height="10" rx="5" ry="5" style="fill: #4d616e; opacity: .5; stroke-width: 0px;"/>
      <rect x="156" y="325" width="15" height="10" rx="5" ry="5" style="fill: #4d616e; opacity: .5; stroke-width: 0px;"/>
      <rect x="156" y="345" width="15" height="10" rx="5" ry="5" style="fill: #4d616e; opacity: .5; stroke-width: 0px;"/>
      <rect x="221" y="345" width="15" height="10" rx="5" ry="5" style="fill: #4d616e; opacity: .5; stroke-width: 0px;"/>
      <rect x="211" y="325" width="25" height="10" rx="5" ry="5" style="fill: #4d616e; opacity: .5; stroke-width: 0px;"/>
      <rect x="206" y="305" width="30" height="10" rx="5" ry="5" style="fill: #4d616e; opacity: .5; stroke-width: 0px;"/>
      <rect x="201" y="285" width="25" height="10" rx="5" ry="5" style="fill: #4d616e; opacity: .5; stroke-width: 0px;"/>
      <rect x="191" y="265" width="10" height="10" rx="5" ry="5" style="fill: #4d616e; opacity: .5; stroke-width: 0px;"/>
      <rect x="156" y="225" width="45" height="10" rx="5" ry="5" style="fill: #4d616e; opacity: .5; stroke-width: 0px;"/>
      <rect x="211" y="225" width="35" height="10" rx="5" ry="5" style="fill: #4d616e; opacity: .5; stroke-width: 0px;"/>
      <rect x="226" y="205" width="25" height="10" rx="5" ry="5" style="fill: #4d616e; opacity: .5; stroke-width: 0px;"/>
      <rect x="156" y="205" width="60" height="10" rx="5" ry="5" style="fill: #4d616e; opacity: .5; stroke-width: 0px;"/>
      <rect x="331" y="205" width="35" height="10" rx="5" ry="5" style="fill: #4d616e; opacity: .5; stroke-width: 0px;"/>
      <rect x="156" y="165" width="45" height="10" rx="5" ry="5" style="fill: #4d616e; opacity: .5; stroke-width: 0px;"/>
      <rect x="351" y="145" width="15" height="10" rx="5" ry="5" style="fill: #4d616e; opacity: .5; stroke-width: 0px;"/>
    </g>
  </g>
  <path d="M492.0147,206.4881v40.302h-12.7669v-100.4789h32.5728c4.5087.092,8.7643.8051,12.7669,2.1393,4.0486,1.3342,7.5911,3.2665,10.6276,5.7969,3.0364,2.5304,5.4288,5.6588,7.177,9.3854,1.7943,3.7265,2.6914,8.0052,2.6914,12.8359s-.8972,9.1093-2.6914,12.8359c-1.7483,3.6806-4.1406,6.786-7.1771,9.3164-3.0364,2.5304-6.579,4.4627-10.6276,5.7969-4.0026,1.3342-8.2582,2.0243-12.7669,2.0703h-19.8059ZM492.0147,195.9986h19.8059c2.9444-.046,5.6588-.5061,8.1432-1.3802,2.4844-.9201,4.6467-2.2083,6.487-3.8646s3.2665-3.6575,4.2786-6.0039c1.0582-2.3924,1.5872-5.1068,1.5872-8.1432s-.5291-5.7739-1.5872-8.2122c-1.0121-2.4384-2.4384-4.5087-4.2786-6.2109-1.7943-1.7023-3.9566-3.0134-6.487-3.9336-2.4844-.9201-5.1988-1.4032-8.1432-1.4492h-19.8059v39.1978ZM601.9865,170.7408c1.1962,0,2.4384.046,3.7266.138,1.2882.046,2.5074.161,3.6575.345,1.1962.138,2.2773.3221,3.2435.5521,1.0121.23,1.8403.4831,2.4844.7591l-1.7253,12.4909c-2.4844-.5521-4.8537-.9431-7.108-1.1732-2.2083-.276-4.5317-.4141-6.97-.4141-5.9809,0-10.8346,1.3572-14.5612,4.0716-3.6805,2.7144-6.395,6.51-8.1432,11.3867v47.8931h-12.8359v-74.6691h12.1458l.6211,11.8698c3.0364-4.0946,6.671-7.3151,10.9036-9.6614,4.2786-2.3924,9.1323-3.5885,14.5612-3.5885h0ZM661.0287,248.1703c-5.2448,0-10.0755-.8971-14.4921-2.6914-4.3707-1.7943-8.1202-4.3016-11.2487-7.5221s-5.5668-7.039-7.3151-11.4557-2.6224-9.2244-2.6224-14.4231v-2.8984c0-6.0269.9661-11.4097,2.8984-16.1484,1.9323-4.7847,4.4857-8.8103,7.6602-12.0768,3.2205-3.3125,6.855-5.8429,10.9036-7.5911,4.0946-1.7483,8.2812-2.6224,12.5599-2.6224,5.3828,0,10.0755.9431,14.0781,2.8294,4.0486,1.8403,7.4071,4.4167,10.0755,7.7291,2.6684,3.2665,4.6467,7.1311,5.9349,11.5937,1.3342,4.4627,2.0013,9.2934,2.0013,14.4922v5.7278h-53.3449c.138,3.4045.7821,6.602,1.9323,9.5924,1.1962,2.9904,2.8064,5.6128,4.8307,7.8672,2.0703,2.2083,4.5317,3.9566,7.3841,5.2448s6.0039,1.9323,9.4544,1.9323c4.5547,0,8.6033-.9201,12.1458-2.7604s6.4869-4.2786,8.8333-7.3151l7.7982,6.0729c-1.2422,1.8863-2.8064,3.7036-4.6927,5.4518-1.8403,1.7023-3.9796,3.2205-6.418,4.5547s-5.1988,2.3924-8.2812,3.1745c-3.0825.8281-6.441,1.2422-10.0755,1.2422h0ZM659.3725,181.2304c-2.5764,0-5.0148.4831-7.3151,1.4492-2.3004.9201-4.3707,2.3003-6.2109,4.1406-1.8403,1.7943-3.4045,4.0256-4.6927,6.694-1.2422,2.6224-2.1163,5.6588-2.6224,9.1093h40.1639v-.9661c-.138-2.4844-.6211-4.9457-1.4492-7.3841-.7821-2.4384-1.9553-4.6237-3.5195-6.556s-3.5425-3.4965-5.9349-4.6927c-2.3464-1.1962-5.1528-1.7943-8.4193-1.7943h0ZM733.252,154.0403v18.0807h28.4323v9.8685h-28.4323v40.578c0,2.8984.368,5.2908,1.1041,7.1771.7361,1.8863,1.7482,3.4045,3.0364,4.5547,1.2882,1.1042,2.7604,1.8863,4.4167,2.3463,1.7023.4601,3.4965.6901,5.3828.6901,1.3802,0,2.8064-.069,4.2786-.207,1.4722-.184,2.8984-.3911,4.2786-.6211,1.4262-.23,2.7374-.4601,3.9336-.6901,1.2422-.276,2.2543-.5061,3.0364-.6901l1.7943,9.0403c-1.0582.6441-2.3463,1.2192-3.8646,1.7253-1.5182.4601-3.1745.8511-4.9688,1.1732-1.7943.3681-3.7036.6441-5.7278.8281-1.9783.184-3.9566.276-5.9349.276-3.3125,0-6.418-.4601-9.3164-1.3802-2.8524-.9661-5.3368-2.4614-7.4531-4.4857-2.1163-2.0703-3.7955-4.7157-5.0377-7.9362-1.1962-3.2665-1.7943-7.2001-1.7943-11.8008v-40.578h-19.5989v-9.8685h19.5989v-18.0807h12.8359ZM808.2355,154.0403v18.0807h28.4322v9.8685h-28.4323v40.578c0,2.8984.368,5.2908,1.1042,7.1771s1.7482,3.4045,3.0364,4.5547c1.2882,1.1042,2.7604,1.8863,4.4167,2.3463,1.7023.4601,3.4965.6901,5.3828.6901,1.3802,0,2.8064-.069,4.2786-.207,1.4722-.184,2.8984-.3911,4.2786-.6211,1.4262-.23,2.7374-.4601,3.9336-.6901,1.2422-.276,2.2543-.5061,3.0364-.6901l1.7943,9.0403c-1.0582.6441-2.3464,1.2192-3.8646,1.7253-1.5182.4601-3.1745.8511-4.9688,1.1732-1.7943.3681-3.7036.6441-5.7278.8281-1.9783.184-3.9566.276-5.9349.276-3.3125,0-6.418-.4601-9.3164-1.3802-2.8524-.9661-5.3368-2.4614-7.4531-4.4857-2.1163-2.0703-3.7955-4.7157-5.0377-7.9362-1.1962-3.2665-1.7943-7.2001-1.7943-11.8008v-40.578h-19.5989v-9.8685h19.5989v-18.0807h12.8359ZM854.994,172.121h38.1627v63.6274h24.3607v11.0416h-62.5233v-11.0416h25.3958v-52.5168h-25.3958v-11.1106ZM878.7335,152.5221c0-2.1163.6211-3.8876,1.8633-5.3138,1.2882-1.4722,3.2205-2.2083,5.7969-2.2083,2.5304,0,4.4396.7361,5.7278,2.2083,1.2882,1.4262,1.9323,3.1975,1.9323,5.3138,0,2.0703-.6441,3.7956-1.9323,5.1758s-3.1975,2.0703-5.7278,2.0703c-2.5764,0-4.5087-.6901-5.7969-2.0703-1.2422-1.3802-1.8633-3.1055-1.8633-5.1758ZM960.9631,248.1703c-5.2448,0-10.0755-.8971-14.4921-2.6914-4.3707-1.7943-8.1202-4.3016-11.2487-7.5221-3.1285-3.2205-5.5668-7.039-7.3151-11.4557s-2.6224-9.2244-2.6224-14.4231v-2.8984c0-6.0269.9661-11.4097,2.8984-16.1484,1.9323-4.7847,4.4857-8.8103,7.6602-12.0768,3.2205-3.3125,6.855-5.8429,10.9036-7.5911,4.0946-1.7483,8.2812-2.6224,12.5599-2.6224,5.3828,0,10.0755.9431,14.0781,2.8294,4.0486,1.8403,7.4071,4.4167,10.0755,7.7291,2.6684,3.2665,4.6467,7.1311,5.9349,11.5937,1.3342,4.4627,2.0013,9.2934,2.0013,14.4922v5.7278h-53.3449c.138,3.4045.7821,6.602,1.9323,9.5924,1.1962,2.9904,2.8064,5.6128,4.8307,7.8672,2.0703,2.2083,4.5317,3.9566,7.3841,5.2448s6.0039,1.9323,9.4544,1.9323c4.5547,0,8.6033-.9201,12.1458-2.7604s6.4869-4.2786,8.8333-7.3151l7.7982,6.0729c-1.2422,1.8863-2.8064,3.7036-4.6927,5.4518-1.8403,1.7023-3.9796,3.2205-6.418,4.5547s-5.1988,2.3924-8.2812,3.1745c-3.0825.8281-6.441,1.2422-10.0755,1.2422h0ZM959.3069,181.2304c-2.5764,0-5.0147.4831-7.3151,1.4492-2.3004.9201-4.3707,2.3003-6.2109,4.1406-1.8403,1.7943-3.4045,4.0256-4.6927,6.694-1.2422,2.6224-2.1163,5.6588-2.6224,9.1093h40.1639v-.9661c-.138-2.4844-.6211-4.9457-1.4492-7.3841-.7821-2.4384-1.9553-4.6237-3.5195-6.556-1.5642-1.9323-3.5425-3.4965-5.9349-4.6927-2.3464-1.1962-5.1528-1.7943-8.4193-1.7943ZM1051.8882,170.7408c1.1962,0,2.4384.046,3.7264.138,1.2882.046,2.5074.161,3.6576.345,1.1962.138,2.2773.3221,3.2435.5521,1.0121.23,1.8402.4831,2.4843.7591l-1.7252,12.4909c-2.4844-.5521-4.8538-.9431-7.1082-1.1732-2.2083-.276-4.5316-.4141-6.97-.4141-5.9809,0-10.8346,1.3572-14.5612,4.0716-3.6805,2.7144-6.395,6.51-8.1432,11.3867v47.8931h-12.8359v-74.6691h12.1458l.6211,11.8698c3.0364-4.0946,6.671-7.3151,10.9036-9.6614,4.2786-2.3924,9.1324-3.5885,14.5612-3.5885h.0002ZM479.2478,264.6506v-12.834h77.4512v12.834h-31.6367v89.2095h-14.1768v-89.2095h-31.6377ZM637.1297,280.1399l-15.5205,73.7202h-13.8779l-10.7451-50.7388-10.5957,50.7388h-13.4307l-15.5195-73.7202h12.9834l10.1475,56.1108,11.043-56.1108h11.4902l11.1924,55.8125,9.999-55.8125h12.834ZM712.1883,341.7722v12.0879h-65.3633v-12.0879h26.2646v-49.5444h-23.2803v-12.0879h36.5615v61.6323h25.8174ZM672.0125,259.5932c0-2.1163.6211-3.8876,1.8633-5.3138,1.2882-1.4722,3.2205-2.2083,5.7969-2.2083,2.5304,0,4.4396.7361,5.7278,2.2083,1.2882,1.4262,1.9323,3.1975,1.9323,5.3138,0,2.0703-.6441,3.7956-1.9323,5.1758s-3.1975,2.0703-5.7278,2.0703c-2.5764,0-4.5087-.6901-5.7969-2.0703-1.2422-1.3802-1.8633-3.1055-1.8633-5.1758ZM787.992,353.7107c0,21.4893-14.1768,34.4727-37.0088,34.4727-9.4014,0-18.0576-2.3877-24.3252-5.9692v-13.2817c6.2676,4.3276,14.9238,7.1631,23.7285,7.1631,14.7734,0,24.1748-8.5063,24.1748-22.6831v-6.5659c-5.6709,4.4766-13.1318,7.0137-21.041,7.0137-19.6992,0-35.0693-14.7739-35.0693-36.7109,0-21.6382,15.3701-38.5015,38.0537-38.5015,8.6553,0,15.8184,2.3877,21.9365,5.8198l9.5508-2.8354v72.0786ZM774.5613,335.6541v-40.1431c-4.626-2.6865-11.043-4.7754-17.46-4.7754-15.6689,0-25.0703,11.4907-25.0703,25.9658,0,14.7739,9.4014,25.5186,24.1748,25.5186,7.0137,0,13.7295-2.686,18.3555-6.5659Z" style="fill: #334650; stroke-width: 0px;"/>
</svg>