<?xml version="1.0" encoding="UTF-8"?>
<svg id="b" data-name="Layer 2" xmlns="http://www.w3.org/2000/svg" width="210" height="210" viewBox="0 0 210 210">
  <g>
    <rect x="90" y="200" width="35" height="10" rx="5" ry="5" style="fill: #b2d326; stroke-width: 0px;"/>
    <rect x="25" y="200" width="30" height="10" rx="5" ry="5" style="fill: #b2d326; stroke-width: 0px;"/>
    <rect x="115" y="180" width="10" height="10" rx="5" ry="5" style="fill: #b2d326; stroke-width: 0px;"/>
    <rect x="90" y="180" width="15" height="10" rx="5" ry="5" style="fill: #b2d326; stroke-width: 0px;"/>
    <rect x="25" y="180" width="20" height="10" rx="5" ry="5" style="fill: #b2d326; stroke-width: 0px;"/>
    <rect x="25" y="160" width="15" height="10" rx="5" ry="5" style="fill: #b2d326; stroke-width: 0px;"/>
    <rect x="90" y="160" width="35" height="10" rx="5" ry="5" style="fill: #b2d326; stroke-width: 0px;"/>
    <rect x="15" y="140" width="20" height="10" rx="5" ry="5" style="fill: #b2d326; stroke-width: 0px;"/>
    <rect x="80" y="140" width="50" height="10" rx="5" ry="5" style="fill: #b2d326; stroke-width: 0px;"/>
    <rect x="85" y="120" width="35" height="10" rx="5" ry="5" style="fill: #b2d326; stroke-width: 0px;"/>
    <rect x="55" y="120" width="20" height="10" rx="5" ry="5" style="fill: #b2d326; stroke-width: 0px;"/>
    <rect x="0" y="120" width="25" height="10" rx="5" ry="5" style="fill: #b2d326; stroke-width: 0px;"/>
    <rect x="130" y="120" width="25" height="10" rx="5" ry="5" style="fill: #b2d326; stroke-width: 0px;"/>
    <rect x="100" y="100" width="20" height="10" rx="5" ry="5" style="fill: #b2d326; stroke-width: 0px;"/>
    <rect x="40" y="100" width="20" height="10" rx="5" ry="5" style="fill: #b2d326; stroke-width: 0px;"/>
    <rect x="150" y="100" width="20" height="10" rx="5" ry="5" style="fill: #b2d326; stroke-width: 0px;"/>
    <rect x="100" y="80" width="30" height="10" rx="5" ry="5" style="fill: #b2d326; stroke-width: 0px;"/>
    <rect x="165" y="80" width="20" height="10" rx="5" ry="5" style="fill: #b2d326; stroke-width: 0px;"/>
    <rect x="105" y="60" width="25" height="10" rx="5" ry="5" style="fill: #b2d326; stroke-width: 0px;"/>
    <rect x="110" y="40" width="25" height="10" rx="5" ry="5" style="fill: #b2d326; stroke-width: 0px;"/>
    <rect x="120" y="20" width="20" height="10" rx="5" ry="5" style="fill: #b2d326; stroke-width: 0px;"/>
    <rect x="180" y="20" width="30" height="10" rx="5" ry="5" style="fill: #b2d326; stroke-width: 0px;"/>
    <rect x="145" y="0" width="40" height="10" rx="5" ry="5" style="fill: #b2d326; stroke-width: 0px;"/>
  </g>
  <g style="opacity: .5;">
    <rect x="0" y="0" width="135" height="10" rx="5" ry="5" style="fill: #c6cbd0; opacity: .5; stroke-width: 0px;"/>
    <rect x="0" y="40" width="100" height="10" rx="5" ry="5" style="fill: #c6cbd0; opacity: .5; stroke-width: 0px;"/>
    <rect x="55" y="20" width="55" height="10" rx="5" ry="5" style="fill: #c6cbd0; opacity: .5; stroke-width: 0px;"/>
    <rect x="150" y="20" width="25" height="10" rx="5" ry="5" style="fill: #c6cbd0; opacity: .5; stroke-width: 0px;"/>
    <rect x="145" y="40" width="65" height="10" rx="5" ry="5" style="fill: #c6cbd0; opacity: .5; stroke-width: 0px;"/>
    <rect x="140" y="60" width="30" height="10" rx="5" ry="5" style="fill: #c6cbd0; opacity: .5; stroke-width: 0px;"/>
    <rect x="140" y="80" width="15" height="10" rx="5" ry="5" style="fill: #c6cbd0; opacity: .5; stroke-width: 0px;"/>
    <rect x="190" y="80" width="20" height="10" rx="5" ry="5" style="fill: #c6cbd0; opacity: .5; stroke-width: 0px;"/>
    <rect x="180" y="100" width="30" height="10" rx="5" ry="5" style="fill: #c6cbd0; opacity: .5; stroke-width: 0px;"/>
    <rect x="165" y="120" width="45" height="10" rx="5" ry="5" style="fill: #c6cbd0; opacity: .5; stroke-width: 0px;"/>
    <rect x="140" y="140" width="25" height="10" rx="5" ry="5" style="fill: #c6cbd0; opacity: .5; stroke-width: 0px;"/>
    <rect x="175" y="140" width="35" height="10" rx="5" ry="5" style="fill: #c6cbd0; opacity: .5; stroke-width: 0px;"/>
    <rect x="135" y="180" width="75" height="10" rx="5" ry="5" style="fill: #c6cbd0; opacity: .5; stroke-width: 0px;"/>
    <rect x="160" y="160" width="25" height="10" rx="5" ry="5" style="fill: #c6cbd0; opacity: .5; stroke-width: 0px;"/>
    <rect x="135" y="160" width="15" height="10" rx="5" ry="5" style="fill: #c6cbd0; opacity: .5; stroke-width: 0px;"/>
    <rect x="195" y="160" width="15" height="10" rx="5" ry="5" style="fill: #c6cbd0; opacity: .5; stroke-width: 0px;"/>
    <rect x="160" y="200" width="25" height="10" rx="5" ry="5" style="fill: #c6cbd0; opacity: .5; stroke-width: 0px;"/>
    <rect x="135" y="200" width="15" height="10" rx="5" ry="5" style="fill: #c6cbd0; opacity: .5; stroke-width: 0px;"/>
    <rect x="195" y="200" width="15" height="10" rx="5" ry="5" style="fill: #c6cbd0; opacity: .5; stroke-width: 0px;"/>
    <rect x="130" y="100" width="10" height="10" rx="5" ry="5" style="fill: #c6cbd0; opacity: .5; stroke-width: 0px;"/>
    <rect x="70" y="100" width="20" height="10" rx="5" ry="5" style="fill: #c6cbd0; opacity: .5; stroke-width: 0px;"/>
    <rect x="0" y="100" width="30" height="10" rx="5" ry="5" style="fill: #c6cbd0; opacity: .5; stroke-width: 0px;"/>
    <rect x="0" y="140" width="10" height="10" rx="5" ry="5" style="fill: #c6cbd0; opacity: .5; stroke-width: 0px;"/>
    <rect x="0" y="160" width="15" height="10" rx="5" ry="5" style="fill: #c6cbd0; opacity: .5; stroke-width: 0px;"/>
    <rect y="180" width="15" height="10" rx="5" ry="5" style="fill: #c6cbd0; opacity: .5; stroke-width: 0px;"/>
    <rect y="200" width="15" height="10" rx="5" ry="5" style="fill: #c6cbd0; opacity: .5; stroke-width: 0px;"/>
    <rect x="65" y="200" width="15" height="10" rx="5" ry="5" style="fill: #c6cbd0; opacity: .5; stroke-width: 0px;"/>
    <rect x="55" y="180" width="25" height="10" rx="5" ry="5" style="fill: #c6cbd0; opacity: .5; stroke-width: 0px;"/>
    <rect x="50" y="160" width="30" height="10" rx="5" ry="5" style="fill: #c6cbd0; opacity: .5; stroke-width: 0px;"/>
    <rect x="45" y="140" width="25" height="10" rx="5" ry="5" style="fill: #c6cbd0; opacity: .5; stroke-width: 0px;"/>
    <rect x="35" y="120" width="10" height="10" rx="5" ry="5" style="fill: #c6cbd0; opacity: .5; stroke-width: 0px;"/>
    <rect x="0" y="80" width="45" height="10" rx="5" ry="5" style="fill: #c6cbd0; opacity: .5; stroke-width: 0px;"/>
    <rect x="55" y="80" width="35" height="10" rx="5" ry="5" style="fill: #c6cbd0; opacity: .5; stroke-width: 0px;"/>
    <rect x="70" y="60" width="25" height="10" rx="5" ry="5" style="fill: #c6cbd0; opacity: .5; stroke-width: 0px;"/>
    <rect x="0" y="60" width="60" height="10" rx="5" ry="5" style="fill: #c6cbd0; opacity: .5; stroke-width: 0px;"/>
    <rect x="175" y="60" width="35" height="10" rx="5" ry="5" style="fill: #c6cbd0; opacity: .5; stroke-width: 0px;"/>
    <rect x="0" y="20" width="45" height="10" rx="5" ry="5" style="fill: #c6cbd0; opacity: .5; stroke-width: 0px;"/>
    <rect x="195" y="0" width="15" height="10" rx="5" ry="5" style="fill: #c6cbd0; opacity: .5; stroke-width: 0px;"/>
  </g>
</svg>