<?xml version="1.0" encoding="UTF-8"?>
<svg id="b" data-name="Layer 2" xmlns="http://www.w3.org/2000/svg" width="685" height="250" viewBox="0 0 685 250">
  <g>
    <rect x="345" y="220" width="35" height="10" rx="5" ry="5" style="fill: #b2d326; stroke-width: 0px;"/>
    <rect x="280" y="220" width="30" height="10" rx="5" ry="5" style="fill: #b2d326; stroke-width: 0px;"/>
    <rect x="370" y="200" width="10" height="10" rx="5" ry="5" style="fill: #b2d326; stroke-width: 0px;"/>
    <rect x="345" y="200" width="15" height="10" rx="5" ry="5" style="fill: #b2d326; stroke-width: 0px;"/>
    <rect x="280" y="200" width="20" height="10" rx="5" ry="5" style="fill: #b2d326; stroke-width: 0px;"/>
    <rect x="280" y="180" width="15" height="10" rx="5" ry="5" style="fill: #b2d326; stroke-width: 0px;"/>
    <rect x="345" y="180" width="35" height="10" rx="5" ry="5" style="fill: #b2d326; stroke-width: 0px;"/>
    <rect x="270" y="160" width="20" height="10" rx="5" ry="5" style="fill: #b2d326; stroke-width: 0px;"/>
    <rect x="335" y="160" width="50" height="10" rx="5" ry="5" style="fill: #b2d326; stroke-width: 0px;"/>
    <rect x="340" y="140" width="35" height="10" rx="5" ry="5" style="fill: #b2d326; stroke-width: 0px;"/>
    <rect x="310" y="140" width="20" height="10" rx="5" ry="5" style="fill: #b2d326; stroke-width: 0px;"/>
    <rect x="255" y="140" width="30" height="10" rx="5" ry="5" style="fill: #b2d326; stroke-width: 0px;"/>
    <rect x="385" y="140" width="25" height="10" rx="5" ry="5" style="fill: #b2d326; stroke-width: 0px;"/>
    <rect x="355" y="120" width="20" height="10" rx="5" ry="5" style="fill: #b2d326; stroke-width: 0px;"/>
    <rect x="295" y="120" width="20" height="10" rx="5" ry="5" style="fill: #b2d326; stroke-width: 0px;"/>
    <rect x="405" y="120" width="20" height="10" rx="5" ry="5" style="fill: #b2d326; stroke-width: 0px;"/>
    <rect x="355" y="100" width="30" height="10" rx="5" ry="5" style="fill: #b2d326; stroke-width: 0px;"/>
    <rect x="420" y="100" width="20" height="10" rx="5" ry="5" style="fill: #b2d326; stroke-width: 0px;"/>
    <rect x="360" y="80" width="25" height="10" rx="5" ry="5" style="fill: #b2d326; stroke-width: 0px;"/>
    <rect x="365" y="60" width="25" height="10" rx="5" ry="5" style="fill: #b2d326; stroke-width: 0px;"/>
    <rect x="375" y="40" width="20" height="10" rx="5" ry="5" style="fill: #b2d326; stroke-width: 0px;"/>
    <rect x="435" y="40" width="30" height="10" rx="5" ry="5" style="fill: #b2d326; stroke-width: 0px;"/>
    <rect x="400" y="20" width="40" height="10" rx="5" ry="5" style="fill: #b2d326; stroke-width: 0px;"/>
  </g>
  <g style="opacity: .5;">
    <rect x="230" y="220" width="40" height="10" rx="5" ry="5" style="fill: #4d616e; opacity: .5; stroke-width: 0px;"/>
    <rect x="170" y="220" width="50" height="10" rx="5" ry="5" style="fill: #4d616e; opacity: .5; stroke-width: 0px;"/>
    <rect x="70" y="220" width="90" height="10" rx="5" ry="5" style="fill: #4d616e; opacity: .5; stroke-width: 0px;"/>
    <rect x="320" y="220" width="15" height="10" rx="5" ry="5" style="fill: #4d616e; opacity: .5; stroke-width: 0px;"/>
    <rect x="390" y="220" width="85" height="10" rx="5" ry="5" style="fill: #4d616e; opacity: .5; stroke-width: 0px;"/>
    <rect x="485" y="220" width="40" height="10" rx="5" ry="5" style="fill: #4d616e; opacity: .5; stroke-width: 0px;"/>
    <rect x="185" y="200" width="85" height="10" rx="5" ry="5" style="fill: #4d616e; opacity: .5; stroke-width: 0px;"/>
    <rect x="120" y="200" width="55" height="10" rx="5" ry="5" style="fill: #4d616e; opacity: .5; stroke-width: 0px;"/>
    <rect x="310" y="200" width="25" height="10" rx="5" ry="5" style="fill: #4d616e; opacity: .5; stroke-width: 0px;"/>
    <rect x="390" y="200" width="20" height="10" rx="5" ry="5" style="fill: #4d616e; opacity: .5; stroke-width: 0px;"/>
    <rect x="420" y="200" width="115" height="10" rx="5" ry="5" style="fill: #4d616e; opacity: .5; stroke-width: 0px;"/>
    <rect x="195" y="180" width="75" height="10" rx="5" ry="5" style="fill: #4d616e; opacity: .5; stroke-width: 0px;"/>
    <rect x="165" y="180" width="20" height="10" rx="5" ry="5" style="fill: #4d616e; opacity: .5; stroke-width: 0px;"/>
    <rect x="75" y="180" width="80" height="10" rx="5" ry="5" style="fill: #4d616e; opacity: .5; stroke-width: 0px;"/>
    <rect x="305" y="180" width="30" height="10" rx="5" ry="5" style="fill: #4d616e; opacity: .5; stroke-width: 0px;"/>
    <rect x="390" y="180" width="45" height="10" rx="5" ry="5" style="fill: #4d616e; opacity: .5; stroke-width: 0px;"/>
    <rect x="445" y="180" width="150" height="10" rx="5" ry="5" style="fill: #4d616e; opacity: .5; stroke-width: 0px;"/>
    <rect x="200" y="160" width="60" height="10" rx="5" ry="5" style="fill: #4d616e; opacity: .5; stroke-width: 0px;"/>
    <rect x="150" y="160" width="40" height="10" rx="5" ry="5" style="fill: #4d616e; opacity: .5; stroke-width: 0px;"/>
    <rect x="89.7904" y="160" width="50.2096" height="10" rx="5" ry="5" style="fill: #4d616e; opacity: .5; stroke-width: 0px;"/>
    <rect x="300" y="160" width="25" height="10" rx="5" ry="5" style="fill: #4d616e; opacity: .5; stroke-width: 0px;"/>
    <rect x="395" y="160" width="80" height="10" rx="5" ry="5" style="fill: #4d616e; opacity: .5; stroke-width: 0px;"/>
    <rect x="485" y="160" width="90" height="10" rx="5" ry="5" style="fill: #4d616e; opacity: .5; stroke-width: 0px;"/>
    <rect x="585" y="160" width="40" height="10" rx="5" ry="5" style="fill: #4d616e; opacity: .5; stroke-width: 0px;"/>
    <rect x="210" y="140" width="35" height="10" rx="5" ry="5" style="fill: #4d616e; opacity: .5; stroke-width: 0px;"/>
    <rect x="110" y="140" width="90" height="10" rx="5" ry="5" style="fill: #4d616e; opacity: .5; stroke-width: 0px;"/>
    <rect x="40" y="140" width="60" height="10" rx="5" ry="5" style="fill: #4d616e; opacity: .5; stroke-width: 0px;"/>
    <rect x="295" y="140" width="10" height="10" rx="5" ry="5" style="fill: #4d616e; opacity: .5; stroke-width: 0px;"/>
    <rect x="420" y="140" width="85" height="10" rx="5" ry="5" style="fill: #4d616e; opacity: .5; stroke-width: 0px;"/>
    <rect x="515" y="140" width="130" height="10" rx="5" ry="5" style="fill: #4d616e; opacity: .5; stroke-width: 0px;"/>
    <rect x="230" y="120" width="55" height="10" rx="5" ry="5" style="fill: #4d616e; opacity: .5; stroke-width: 0px;"/>
    <rect x="130" y="120" width="90" height="10" rx="5" ry="5" style="fill: #4d616e; opacity: .5; stroke-width: 0px;"/>
    <rect x="30" y="120" width="90" height="10" rx="5" ry="5" style="fill: #4d616e; opacity: .5; stroke-width: 0px;"/>
    <rect x="385" y="120" width="10" height="10" rx="5" ry="5" style="fill: #4d616e; opacity: .5; stroke-width: 0px;"/>
    <rect x="325" y="120" width="20" height="10" rx="5" ry="5" style="fill: #4d616e; opacity: .5; stroke-width: 0px;"/>
    <rect x="435" y="120" width="120" height="10" rx="5" ry="5" style="fill: #4d616e; opacity: .5; stroke-width: 0px;"/>
    <rect x="565" y="120" width="20" height="10" rx="5" ry="5" style="fill: #4d616e; opacity: .5; stroke-width: 0px;"/>
    <rect x="595" y="120" width="70" height="10" rx="5" ry="5" style="fill: #4d616e; opacity: .5; stroke-width: 0px;"/>
    <rect x="270" y="100" width="75" height="10" rx="5" ry="5" style="fill: #4d616e; opacity: .5; stroke-width: 0px;"/>
    <rect x="150" y="100" width="110" height="10" rx="5" ry="5" style="fill: #4d616e; opacity: .5; stroke-width: 0px;"/>
    <rect x="0" y="100" width="140" height="10" rx="5" ry="5" style="fill: #4d616e; opacity: .5; stroke-width: 0px;"/>
    <rect x="395" y="100" width="15" height="10" rx="5" ry="5" style="fill: #4d616e; opacity: .5; stroke-width: 0px;"/>
    <rect x="450" y="100" width="155" height="10" rx="5" ry="5" style="fill: #4d616e; opacity: .5; stroke-width: 0px;"/>
    <rect x="330" y="80" width="20" height="10" rx="5" ry="5" style="fill: #4d616e; opacity: .5; stroke-width: 0px;"/>
    <rect x="270" y="80" width="50" height="10" rx="5" ry="5" style="fill: #4d616e; opacity: .5; stroke-width: 0px;"/>
    <rect x="240" y="80" width="20" height="10" rx="5" ry="5" style="fill: #4d616e; opacity: .5; stroke-width: 0px;"/>
    <rect x="170" y="80" width="60" height="10" rx="5" ry="5" style="fill: #4d616e; opacity: .5; stroke-width: 0px;"/>
    <rect x="120" y="80" width="40" height="10" rx="5" ry="5" style="fill: #4d616e; opacity: .5; stroke-width: 0px;"/>
    <rect x="395" y="80" width="50" height="10" rx="5" ry="5" style="fill: #4d616e; opacity: .5; stroke-width: 0px;"/>
    <rect x="455" y="80" width="20" height="10" rx="5" ry="5" style="fill: #4d616e; opacity: .5; stroke-width: 0px;"/>
    <rect x="485" y="80" width="200" height="10" rx="5" ry="5" style="fill: #4d616e; opacity: .5; stroke-width: 0px;"/>
    <rect x="255" y="60" width="100" height="10" rx="5" ry="5" style="fill: #4d616e; opacity: .5; stroke-width: 0px;"/>
    <rect x="190" y="60" width="55" height="10" rx="5" ry="5" style="fill: #4d616e; opacity: .5; stroke-width: 0px;"/>
    <rect x="80" y="60" width="100" height="10" rx="5" ry="5" style="fill: #4d616e; opacity: .5; stroke-width: 0px;"/>
    <rect x="40" y="60" width="30" height="10" rx="5" ry="5" style="fill: #4d616e; opacity: .5; stroke-width: 0px;"/>
    <rect x="400" y="60" width="35" height="10" rx="5" ry="5" style="fill: #4d616e; opacity: .5; stroke-width: 0px;"/>
    <rect x="445" y="60" width="90" height="10" rx="5" ry="5" style="fill: #4d616e; opacity: .5; stroke-width: 0px;"/>
    <rect x="545" y="60" width="90" height="10" rx="5" ry="5" style="fill: #4d616e; opacity: .5; stroke-width: 0px;"/>
    <rect x="180" y="240" width="110" height="10" rx="5" ry="5" style="fill: #4d616e; opacity: .5; stroke-width: 0px;"/>
    <rect x="99.9825" y="240" width="70.0175" height="10" rx="5" ry="5" style="fill: #4d616e; opacity: .5; stroke-width: 0px;"/>
    <rect x="300" y="240" width="100" height="10" rx="5" ry="5" style="fill: #4d616e; opacity: .5; stroke-width: 0px;"/>
    <rect x="410" y="240" width="60" height="10" rx="5" ry="5" style="fill: #4d616e; opacity: .5; stroke-width: 0px;"/>
    <rect x="305" y="20" width="85" height="10" rx="5" ry="5" style="fill: #4d616e; opacity: .5; stroke-width: 0px;"/>
    <rect x="185" y="20" width="110" height="10" rx="5" ry="5" style="fill: #4d616e; opacity: .5; stroke-width: 0px;"/>
    <rect x="105" y="20" width="70" height="10" rx="5" ry="5" style="fill: #4d616e; opacity: .5; stroke-width: 0px;"/>
    <rect x="45" y="20" width="50" height="10" rx="5" ry="5" style="fill: #4d616e; opacity: .5; stroke-width: 0px;"/>
    <rect x="450" y="20" width="65" height="10" rx="5" ry="5" style="fill: #4d616e; opacity: .5; stroke-width: 0px;"/>
    <rect x="525" y="20" width="130" height="10" rx="5" ry="5" style="fill: #4d616e; opacity: .5; stroke-width: 0px;"/>
    <rect x="405" y="40" width="20" height="10" rx="5" ry="5" style="fill: #4d616e; opacity: .5; stroke-width: 0px;"/>
    <rect x="475" y="40" width="140" height="10" rx="5" ry="5" style="fill: #4d616e; opacity: .5; stroke-width: 0px;"/>
    <rect x="270" y="40" width="95" height="10" rx="5" ry="5" style="fill: #4d616e; opacity: .5; stroke-width: 0px;"/>
    <rect x="220" y="40" width="40" height="10" rx="5" ry="5" style="fill: #4d616e; opacity: .5; stroke-width: 0px;"/>
    <rect x="150" y="40" width="60" height="10" rx="5" ry="5" style="fill: #4d616e; opacity: .5; stroke-width: 0px;"/>
    <rect x="80" y="40" width="60" height="10" rx="5" ry="5" style="fill: #4d616e; opacity: .5; stroke-width: 0px;"/>
    <rect x="360" y="0" width="65" height="10" rx="5" ry="5" style="fill: #4d616e; opacity: .5; stroke-width: 0px;"/>
    <rect x="210" y="0" width="140" height="10" rx="5" ry="5" style="fill: #4d616e; opacity: .5; stroke-width: 0px;"/>
    <rect x="180" y="0" width="20" height="10" rx="5" ry="5" style="fill: #4d616e; opacity: .5; stroke-width: 0px;"/>
    <rect x="110" y="0" width="60" height="10" rx="5" ry="5" style="fill: #4d616e; opacity: .5; stroke-width: 0px;"/>
    <rect x="435" y="0" width="125" height="10" rx="5" ry="5" style="fill: #4d616e; opacity: .5; stroke-width: 0px;"/>
    <rect x="570" y="0" width="50" height="10" rx="5" ry="5" style="fill: #4d616e; opacity: .5; stroke-width: 0px;"/>
    <rect x="20" y="80" width="90" height="10" rx="5" ry="5" style="fill: #4d616e; opacity: .5; stroke-width: 0px;"/>
  </g>
</svg>